<svg xmlns="http://www.w3.org/2000/svg" viewBox="0 0 200 200" width="200" height="200">
  <g fill="none" stroke="#C08A3E" stroke-width="3" stroke-linecap="round" stroke-linejoin="round">
    <!-- crown -->
    <path d="M74 46 L84 66 L100 40 L116 66 L126 46 L122 74 H78 Z"/>
    <circle cx="100" cy="34" r="3.5" fill="#C08A3E" stroke="none"/>
    <circle cx="74" cy="42" r="2.5" fill="#C08A3E" stroke="none"/>
    <circle cx="126" cy="42" r="2.5" fill="#C08A3E" stroke="none"/>
    <!-- ring -->
    <circle cx="100" cy="118" r="46"/>
    <!-- laurel left -->
    <path d="M56 132 C48 140 46 152 50 162 M52 138 C46 142 42 148 42 154 M58 146 C52 148 48 152 46 158"/>
    <!-- laurel right -->
    <path d="M144 132 C152 140 154 152 150 162 M148 138 C154 142 158 148 158 154 M142 146 C148 148 152 152 154 158"/>
  </g>
  <text x="100" y="134" font-family="Georgia, 'Playfair Display', serif" font-size="54" font-weight="600" fill="#C08A3E" text-anchor="middle">R</text>
</svg>
